<svg xmlns="http://www.w3.org/2000/svg" xmlns:xlink="http://www.w3.org/1999/xlink" width="40" zoomAndPan="magnify" viewBox="0 0 30 30.000001" height="40" preserveAspectRatio="xMidYMid meet" version="1.0"><defs><clipPath id="9aa159faf0"><path d="M 15 0 L 27.828125 0 L 27.828125 29.03125 L 15 29.03125 Z M 15 0 " clip-rule="nonzero"/></clipPath><clipPath id="f174ca017e"><path d="M 2.425781 0 L 16 0 L 16 29.03125 L 2.425781 29.03125 Z M 2.425781 0 " clip-rule="nonzero"/></clipPath></defs><g clip-path="url(#9aa159faf0)"><path fill="#ff0000" d="M 15.128906 25.679688 L 15.128906 29.023438 L 27.816406 21.773438 L 27.828125 18.421875 Z M 15.128906 12.851562 L 15.128906 16.191406 L 17.796875 17.71875 L 15.128906 19.242188 L 15.128906 22.585938 L 21.453125 18.972656 L 21.453125 16.464844 Z M 15.128906 0.0117188 L 15.128906 3.355469 L 21.953125 7.257812 L 19.242188 8.800781 L 15.128906 6.449219 L 15.128906 9.792969 L 19.238281 12.140625 L 27.816406 7.261719 Z M 15.128906 0.0117188 " fill-opacity="1" fill-rule="evenodd"/></g><g clip-path="url(#f174ca017e)"><path fill="#ff0000" d="M 15.128906 0.0117188 L 15.121094 0.0078125 L 2.425781 7.261719 L 2.425781 21.773438 L 15.121094 29.027344 L 15.128906 29.023438 L 15.128906 25.679688 L 15.121094 25.683594 C 13.085938 24.519531 7.382812 21.261719 5.351562 20.101562 L 5.351562 8.933594 L 15.121094 3.351562 L 15.128906 3.355469 Z M 15.128906 22.585938 L 15.128906 19.242188 L 15.121094 19.246094 L 10.980469 16.882812 L 8.054688 18.554688 L 15.121094 22.589844 Z M 15.128906 6.449219 L 15.121094 6.445312 L 8.785156 10.0625 L 8.785156 12.570312 L 15.128906 16.191406 L 15.128906 12.851562 L 12.445312 11.316406 C 12.445312 11.316406 14.117188 10.359375 15.121094 9.789062 L 15.128906 9.792969 Z M 15.128906 6.449219 " fill-opacity="1" fill-rule="evenodd"/></g></svg>